<svg id="Layer_1" data-name="Layer 1" xmlns="http://www.w3.org/2000/svg" viewBox="0 0 570.91 359.46"><defs><style>.cls-1{fill:#0a0a0a;}</style></defs><title>mdLogo</title><path class="cls-1" d="M824.68,408.08V671.89a47.82,47.82,0,0,1-47.83,47.82H557.35a47.82,47.82,0,0,1-47.83-47.82V426.71a8.05,8.05,0,0,0-8-8.06H491.4a8.06,8.06,0,0,0-8.06,8.06V543a47.82,47.82,0,0,1-47.82,47.83H386.18A47.83,47.83,0,0,1,338.35,543V426.71a8.06,8.06,0,0,0-8.06-8.06H320.23a8.06,8.06,0,0,0-8.06,8.06v263.8a29.2,29.2,0,1,1-58.4,0V408.08a47.84,47.84,0,0,1,47.83-47.83h47.32a47.84,47.84,0,0,1,47.83,47.83v116.3a8,8,0,0,0,8.06,8h12.08a8,8,0,0,0,8.05-8V408.08a47.84,47.84,0,0,1,47.83-47.83H520.1a47.83,47.83,0,0,1,47.82,47.83V653.26a8.05,8.05,0,0,0,8.06,8H758.23a8,8,0,0,0,8-8V426.71a8.05,8.05,0,0,0-8-8.06H655.52a29.2,29.2,0,1,1,0-58.4H776.85A47.84,47.84,0,0,1,824.68,408.08Z" transform="translate(-253.77 -360.25)"/></svg>